<svg xmlns="http://www.w3.org/2000/svg" xmlns:xlink="http://www.w3.org/1999/xlink" zoomAndPan="magnify" preserveAspectRatio="xMidYMid meet" version="1.0" viewBox="127.81 133.82 119.29 78.29"><defs><clipPath id="0b74a45203"><path d="M 127.8125 133.816406 L 247.0625 133.816406 L 247.0625 211.816406 L 127.8125 211.816406 Z M 127.8125 133.816406 " clip-rule="nonzero"/></clipPath></defs><g clip-path="url(#0b74a45203)"><path fill="#000000" d="M 217.015625 206.375 L 215.980469 209.101562 L 188.699219 209.101562 L 203.375 170.472656 L 207.28125 160.1875 C 212.664062 146.019531 224.878906 136.863281 238.398438 136.863281 L 243.425781 136.863281 Z M 167.707031 185.773438 C 162.324219 199.945312 150.113281 209.101562 136.59375 209.101562 L 131.566406 209.101562 L 157.957031 139.640625 L 171.597656 175.542969 Z M 246.835938 134.507812 C 246.558594 134.101562 246.097656 133.859375 245.601562 133.859375 L 238.398438 133.859375 C 223.621094 133.859375 210.308594 143.777344 204.476562 159.121094 L 201.769531 166.25 L 189.953125 135.148438 C 189.921875 134.921875 189.835938 134.703125 189.703125 134.507812 C 189.4375 134.125 189.011719 133.890625 188.550781 133.863281 C 188.542969 133.863281 188.539062 133.863281 188.535156 133.863281 C 188.511719 133.863281 188.492188 133.859375 188.46875 133.859375 L 157.9375 133.859375 C 157.914062 133.859375 157.890625 133.863281 157.867188 133.863281 C 157.863281 133.863281 157.859375 133.863281 157.855469 133.863281 C 157.394531 133.890625 156.964844 134.125 156.699219 134.507812 C 156.566406 134.699219 156.484375 134.917969 156.453125 135.144531 L 127.988281 210.070312 C 127.8125 210.53125 127.875 211.046875 128.152344 211.453125 C 128.433594 211.859375 128.894531 212.101562 129.390625 212.101562 L 136.59375 212.101562 C 151.367188 212.101562 164.683594 202.1875 170.515625 186.839844 L 173.203125 179.765625 L 185.121094 211.136719 C 185.121094 211.140625 185.125 211.144531 185.128906 211.152344 C 185.140625 211.1875 185.15625 211.21875 185.171875 211.253906 C 185.207031 211.324219 185.242188 211.390625 185.289062 211.453125 C 185.320312 211.503906 185.359375 211.550781 185.402344 211.597656 C 185.421875 211.621094 185.441406 211.640625 185.464844 211.664062 C 185.484375 211.683594 185.507812 211.707031 185.53125 211.726562 C 185.550781 211.746094 185.574219 211.765625 185.597656 211.78125 C 185.648438 211.824219 185.707031 211.863281 185.769531 211.898438 C 185.800781 211.914062 185.832031 211.933594 185.863281 211.949219 C 185.894531 211.964844 185.925781 211.976562 185.957031 211.988281 C 185.960938 211.992188 185.964844 211.996094 185.972656 211.996094 C 186.003906 212.011719 186.039062 212.023438 186.074219 212.03125 C 186.101562 212.042969 186.132812 212.050781 186.160156 212.058594 C 186.207031 212.070312 186.25 212.078125 186.296875 212.085938 C 186.328125 212.089844 186.359375 212.09375 186.394531 212.09375 C 186.4375 212.101562 186.480469 212.101562 186.523438 212.101562 L 217.015625 212.101562 C 217.058594 212.101562 217.097656 212.101562 217.140625 212.09375 C 217.175781 212.09375 217.207031 212.089844 217.238281 212.085938 C 217.359375 212.066406 217.476562 212.035156 217.585938 211.988281 C 217.617188 211.976562 217.644531 211.964844 217.675781 211.949219 C 217.707031 211.933594 217.738281 211.914062 217.769531 211.898438 C 217.777344 211.894531 217.785156 211.890625 217.789062 211.886719 C 217.84375 211.855469 217.894531 211.820312 217.9375 211.785156 C 217.941406 211.78125 217.941406 211.78125 217.941406 211.78125 C 217.964844 211.765625 217.988281 211.746094 218.007812 211.726562 C 218.03125 211.707031 218.050781 211.691406 218.066406 211.671875 C 218.1875 211.550781 218.292969 211.414062 218.367188 211.253906 C 218.382812 211.21875 218.398438 211.1875 218.410156 211.152344 C 218.414062 211.144531 218.417969 211.140625 218.417969 211.136719 L 247.003906 135.894531 C 247.179688 135.433594 247.117188 134.914062 246.835938 134.507812 " fill-opacity="1" fill-rule="nonzero"/></g></svg>